<svg xmlns="http://www.w3.org/2000/svg" viewBox="0 0 348 348" fill="none"><path d="M5 6h337v337H5z" stroke-width="2" stroke="#000"/><path d="M283 41c0-9 7-16 15-16 4 0 8 2 11 5s5 7 5 11c0 8-7 15-16 15-8 0-15-7-15-15zM147 22h53v52h-53zM18 95h94v38H18zM126 95h94v37h-94zM234 95h94v38h-94zM18 141h94v38H18zM126 141h94v38h-94zM235 141h94v38h-94zM18 190h310v42H18zM18 295h310v42H18zM18 244h310v42H18z" stroke-width="2" stroke="#000"/><path stroke="#000" stroke-width="2.4" d="M153 27h14v43h-14zM167 27h13v43h-13zM180 27h14v43h-14z"/><g aria-label="100" style="line-height:1.25;-inkscape-font-specification:'VCR OSD Mono'" font-size="30.7" font-family="VCR OSD Mono" fill="#000" stroke-width=".8"><path d="M36 112v-6h3v6h6v3h-6v6h-3v-6h-6v-3zM57 121h3v3h-9v-3h3v-12h-3v-3h2v-1h1v-2h3zM71 115v-1h1v-2h2v-1h1v-2h3v-1h-1v-2h-6v2h-2v7zm-2 3v2h2v1h6v-1h1v-8h-1v2h-2v1h-1v2h-2v1zm0-13v-2h9v2h2v1h1v15h-1v2h-2v1h-9v-1h-1v-2h-2v-15h2v-1zM89 115v-1h1v-2h2v-1h1v-2h3v-1h-1v-2h-6v2h-2v7zm-2 3v2h2v1h6v-1h1v-8h-1v2h-2v1h-1v2h-2v1zm0-13v-2h9v2h2v1h1v15h-1v2h-2v1h-9v-1h-1v-2h-2v-15h2v-1z"/></g><g aria-label="-100" style="line-height:1.25;-inkscape-font-specification:'VCR OSD Mono'" font-size="30.7" font-family="VCR OSD Mono" fill="#000" stroke-width=".8"><path d="M43 159v3H31v-3zM57 168h3v3h-9v-3h3v-12h-3v-3h1v-2h2v-1h3zM70 162v-2h2v-1h1v-2h2v-1h3v-2h-2v-1h-6v1h-1v8zm-1 3v1h1v2h6v-2h2v-7h-2v1h-1v2h-2v1h-1v2zm0-14v-1h9v1h1v2h2v15h-2v1h-1v2h-9v-2h-2v-1h-1v-15h1v-2zM88 162v-2h2v-1h1v-2h2v-1h3v-2h-2v-1h-6v1h-1v8zm-1 3v1h1v2h6v-2h2v-7h-2v1h-1v2h-2v1h-1v2zm0-14v-1h9v1h1v2h2v15h-2v1h-1v2h-9v-2h-2v-1h-1v-15h1v-2z"/></g><g aria-label="10" style="line-height:1.25;-inkscape-font-specification:'VCR OSD Mono'" font-size="30.7" font-family="VCR OSD Mono" fill="#000" stroke-width=".8"><path d="M153 112v-6h3v6h6v3h-6v6h-3v-6h-6v-3zM174 121h3v3h-9v-3h3v-12h-3v-3h2v-2h1v-1h3zM188 115v-2h1v-1h2v-2h1v-1h3v-2h-1v-1h-6v1h-2v8zm-2 3v1h2v2h6v-2h1v-7h-1v1h-2v2h-1v1h-2v2zm0-14v-1h9v1h2v2h1v15h-1v1h-2v2h-9v-2h-1v-1h-2v-15h2v-2z"/></g><g aria-label="-10" style="line-height:1.25;-inkscape-font-specification:'VCR OSD Mono'" font-size="30.7" font-family="VCR OSD Mono" fill="#000" stroke-width=".8"><path d="M161 159v3h-12v-3zM174 168h3v3h-9v-3h3v-12h-3v-3h2v-2h1v-1h3zM188 162v-2h1v-1h2v-2h1v-1h3v-2h-1v-1h-6v1h-2v8zm-2 3v1h2v2h6v-2h1v-7h-1v1h-2v2h-1v1h-2v2zm0-14v-1h9v1h2v2h1v15h-1v1h-2v2h-9v-2h-1v-1h-2v-15h2v-2z"/></g><g aria-label="1" style="line-height:1.25;-inkscape-font-specification:'VCR OSD Mono'" font-size="30.7" font-family="VCR OSD Mono" fill="#000" stroke-width=".8"><path d="M272 113v-6h3v6h6v3h-6v6h-3v-6h-6v-3zM293 122h3v3h-9v-3h3v-12h-3v-3h1v-2h2v-1h3z"/></g><g aria-label="-1" style="line-height:1.25;-inkscape-font-specification:'VCR OSD Mono'" font-size="30.7" font-family="VCR OSD Mono" fill="#000" stroke-width=".8"><path d="M279 158v3h-12v-3zM293 167h3v3h-9v-3h3v-12h-3v-3h1v-1h2v-2h3z"/></g><g aria-label="###" style="line-height:1.25;-inkscape-font-specification:'VCR OSD Mono'" font-size="33.1" font-family="VCR OSD Mono" fill="#000" stroke-width=".8"><path d="M149 210h-3v-3h3v-5h3v3h3v-5h4v4h3v3h-3v5h3v3h-3v5h-4v-3h-3v4h-3v-3h-3v-3h3zm3-1v4h3v-4zM168 210h-3v-3h3v-5h4v3h3v-5h3v4h3v3h-3v5h3v3h-3v5h-3v-3h-3v4h-4v-3h-3v-3h3zm4-1v4h3v-4zM188 210h-3v-3h3v-5h3v3h3v-5h3v4h4v3h-4v5h4v3h-4v5h-3v-3h-3v4h-3v-3h-3v-3h3zm3-1v4h3v-4z"/></g><g aria-label="###" style="line-height:1.25;-inkscape-font-specification:'VCR OSD Mono'" font-size="33.1" font-family="VCR OSD Mono" fill="#000" stroke-width=".8"><path d="M149 315h-3v-3h3v-5h3v3h3v-5h4v3h3v4h-3v4h3v4h-3v5h-4v-4h-3v5h-3v-3h-3v-3h3zm3-2v5h3v-5zM168 315h-3v-3h3v-5h4v3h3v-5h3v3h3v4h-3v4h3v4h-3v5h-3v-4h-3v5h-4v-3h-3v-3h3zm4-2v5h3v-5zM188 315h-3v-3h3v-5h3v3h3v-5h3v3h4v4h-4v4h4v4h-4v5h-3v-4h-3v5h-3v-3h-3v-3h3zm3-2v5h3v-5z"/></g><path d="M170 266v-1h2v-2h1v-1h2v-2h3v-1h-2v-2h-6v2h-1v7zm-1 3v2h1v1h6v-1h2v-8h-2v2h-1v1h-2v2h-1v1zm0-13v-2h9v2h1v1h2v15h-2v2h-1v1h-9v-1h-2v-2h-1v-15h1v-1z" aria-label="0" style="stroke-width:0.768" font-size="30.7" font-family="VCR OSD Mono" fill="#000" stroke-width=".8"/></svg>